<svg width="64" height="64" viewBox="0 0 64 64" fill="none" xmlns="http://www.w3.org/2000/svg">
<rect width="64" height="64" rx="32" fill="white" fill-opacity="0.2"/>
<path d="M26.6667 20H22.6667C21.9594 20 21.2811 20.281 20.781 20.781C20.281 21.2811 20 21.9594 20 22.6667V26.6667M44 26.6667V22.6667C44 21.9594 43.719 21.2811 43.219 20.781C42.7189 20.281 42.0406 20 41.3333 20H37.3333M37.3333 44H41.3333C42.0406 44 42.7189 43.719 43.219 43.219C43.719 42.7189 44 42.0406 44 41.3333V37.3333M20 37.3333V41.3333C20 42.0406 20.281 42.7189 20.781 43.219C21.2811 43.719 21.9594 44 22.6667 44H26.6667" stroke="white" stroke-width="4" stroke-linecap="round" stroke-linejoin="round"/>
</svg>
